<?xml version="1.0" encoding="UTF-8" standalone="no"?><!DOCTYPE svg PUBLIC "-//W3C//DTD SVG 1.1//EN" "http://www.w3.org/Graphics/SVG/1.1/DTD/svg11.dtd"><svg width="100%" height="100%" viewBox="0 0 2194 933" version="1.1" xmlns="http://www.w3.org/2000/svg" xmlns:xlink="http://www.w3.org/1999/xlink" xml:space="preserve" xmlns:serif="http://www.serif.com/" style="fill-rule:evenodd;clip-rule:evenodd;stroke-linejoin:round;stroke-miterlimit:2;"><rect id="Artboard1" x="0" y="0" width="2193" height="932.571" style="fill:none;"/><path d="M708.672,657.046c-3.108,2.425 -7.325,3.637 -12.646,3.637c-7.2,0 -11.237,-0.15 -12.108,-0.445c-0.875,-0.292 -1.563,-1.025 -2.046,-2.2c-0.488,-1.171 -0.733,-2.771 -0.733,-4.788l-0,-34.908c-0,-3.104 0.475,-5.192 1.429,-6.259c0.95,-1.07 2.966,-1.608 6.05,-1.608l3.012,0l0,-1.496l-36.829,0l0,1.496l2.313,0c2.133,0 3.808,0.333 5.016,0.992c1.209,0.666 1.909,1.437 2.1,2.312c0.192,0.879 0.288,2.4 0.288,4.563l0.004,36.041c-0,3.117 -0.479,5.209 -1.429,6.271c-0.954,1.063 -2.946,1.592 -5.979,1.592l-2.313,-0l0,1.5l61.279,-0l2.617,-19.217l-2.079,0c-2.188,5.917 -4.834,10.084 -7.946,12.517" style="fill:#fff;"/><path d="M743.185,645.173l10.567,-18.879l10.296,18.879l-20.863,0Zm42.575,7.584l-24.871,-44.909l-0.966,0l-24.679,43.688c-2.238,3.979 -4.18,6.683 -5.821,8.108c-1.65,1.429 -3.717,2.296 -6.213,2.6l0,1.5l22.946,0l0,-1.5c-4.167,-0.204 -6.721,-0.687 -7.675,-1.454c-0.95,-0.762 -1.425,-1.729 -1.425,-2.892c0,-1.183 0.475,-2.65 1.425,-4.404l2.892,-5.354l24.408,0l3.667,6.854c1.212,2.263 1.812,3.763 1.812,4.496c0,1.838 -2.25,2.754 -6.75,2.754l-1.387,0l-0,1.5l33.396,0l-0,-1.5c-2.363,-0.141 -4.234,-0.821 -5.588,-2.033c-1.367,-1.217 -3.087,-3.7 -5.171,-7.454" style="fill:#fff;"/><path d="M857.023,629.753c-6.967,-2.733 -11.512,-4.883 -13.65,-6.442c-2.133,-1.558 -3.2,-3.316 -3.2,-5.279c0,-2.383 1.175,-4.196 3.529,-5.429c2.354,-1.233 4.929,-1.85 7.729,-1.85c4.834,0 9.1,1.471 12.805,4.404c3.704,2.938 6.016,6.55 6.941,10.834l2.079,-0l-0.537,-18.267l-1.542,-0c-0.671,2.508 -1.837,3.762 -3.512,3.762c-0.746,0 -3.046,-0.62 -6.9,-1.866c-3.854,-1.263 -7.275,-1.896 -10.259,-1.896c-6.012,-0 -11.075,1.504 -15.17,4.512c-4.105,3.009 -6.155,6.759 -6.155,11.246c0,4.038 1.688,7.442 5.071,10.217c3.384,2.775 9.054,5.721 17.025,8.842c5.604,2.183 9.442,4.104 11.513,5.766c2.066,1.663 3.1,3.563 3.1,5.704c-0,2.617 -1.279,4.63 -3.854,6.063c-2.567,1.425 -5.438,2.142 -8.596,2.142c-5.554,-0 -10.338,-1.671 -14.346,-5.005c-4.013,-3.333 -6.7,-7.633 -8.063,-12.895l-1.887,-0l-0,20.683l1.887,-0c1.209,-2.183 2.934,-3.275 5.167,-3.275c1.104,-0 2.454,0.267 4.054,0.796c5.063,1.671 9.538,2.508 13.417,2.508c6.579,0 12.204,-1.579 16.871,-4.742c4.666,-3.162 6.996,-7.17 6.996,-12.025c-0,-3.304 -1.275,-6.383 -3.834,-9.241c-2.558,-2.85 -8.116,-5.942 -16.679,-9.267" style="fill:#fff;"/><path d="M902.526,645.173l10.567,-18.879l10.296,18.879l-20.863,0Zm42.575,7.584l-24.871,-44.909l-0.966,0l-24.68,43.688c-2.237,3.979 -4.179,6.683 -5.82,8.108c-1.646,1.429 -3.717,2.296 -6.213,2.6l0,1.5l22.946,0l-0,-1.5c-4.163,-0.204 -6.725,-0.687 -7.671,-1.454c-0.954,-0.762 -1.429,-1.729 -1.429,-2.892c-0,-1.183 0.475,-2.65 1.429,-4.404l2.888,-5.354l24.412,0l3.663,6.854c1.212,2.263 1.812,3.763 1.812,4.496c0,1.838 -2.246,2.754 -6.746,2.754l-1.391,0l-0,1.5l33.395,0l0,-1.5c-2.362,-0.141 -4.229,-0.821 -5.591,-2.033c-1.363,-1.217 -3.084,-3.7 -5.167,-7.454" style="fill:#fff;"/><path d="M1012.82,657.046c-3.108,2.425 -7.325,3.637 -12.65,3.637c-7.196,0 -11.229,-0.15 -12.108,-0.445c-0.875,-0.292 -1.554,-1.025 -2.042,-2.2c-0.487,-1.171 -0.733,-2.771 -0.733,-4.788l-0,-34.908c-0,-3.104 0.479,-5.192 1.429,-6.259c0.95,-1.07 2.967,-1.608 6.05,-1.608l3.008,0l0,-1.496l-36.825,0l0,1.496l2.313,0c2.137,0 3.808,0.333 5.016,0.992c1.209,0.666 1.909,1.437 2.1,2.312c0.192,0.879 0.292,2.4 0.292,4.563l0,36.041c0,3.117 -0.479,5.209 -1.429,6.271c-0.95,1.063 -2.942,1.592 -5.979,1.592l-2.313,-0l0,1.5l61.275,-0l2.621,-19.217l-2.079,0c-2.188,5.917 -4.833,10.084 -7.946,12.517" style="fill:#fff;"/><path d="M1076.18,610.477c4.217,0 6.913,0.675 8.096,2.021c1.183,1.346 1.775,3.454 1.775,6.329l-0,22.338c-0,6.116 -0.763,10.375 -2.271,12.771c-1.521,2.4 -3.525,4.162 -6.021,5.295c-2.496,1.134 -5.529,1.7 -9.1,1.7c-3.883,0 -6.954,-0.679 -9.216,-2.041c-2.263,-1.354 -3.646,-3.025 -4.146,-5.013c-0.5,-1.987 -0.75,-4.729 -0.75,-8.212l-0,-26.838c-0,-3.608 0.508,-5.9 1.525,-6.883c1.012,-0.979 3.266,-1.467 6.766,-1.467l1.775,0l0,-1.496l-35.637,0l-0,1.496c3.087,0 5.204,0.259 6.346,0.779c1.141,0.525 1.871,1.259 2.179,2.205c0.308,0.945 0.462,2.737 0.462,5.366l0,26.838c0,12.908 8.663,19.362 25.992,19.362c5.425,0 10.013,-0.641 13.767,-1.929c3.754,-1.283 6.596,-3.133 8.521,-5.55c1.929,-2.417 3.095,-4.933 3.491,-7.558c0.396,-2.617 0.6,-6.075 0.6,-10.359l0,-20.804c0,-3.708 0.825,-6.029 2.484,-6.958c1.662,-0.929 3.591,-1.392 5.804,-1.392l1.429,0l-0,-1.496l-23.871,0l0,1.496Z" style="fill:#fff;"/><path d="M1135.25,660.743c-2.567,0 -4.167,-0.425 -4.8,-1.283c-0.63,-0.858 -0.946,-2.408 -0.946,-4.65l-0,-42.712c6.633,-0.042 11.446,0.683 14.437,2.17c3,1.492 5.479,4.092 7.45,7.809c1.963,3.708 2.946,8.633 2.946,14.775c0,15.925 -6.362,23.891 -19.087,23.891m27.937,-44.345c-6.358,-4.95 -16.058,-7.417 -29.096,-7.417l-30.887,-0l-0,1.496l2.275,-0c2.137,-0 3.812,0.333 5.033,0.991c1.221,0.667 1.925,1.43 2.121,2.3c0.192,0.867 0.292,2.388 0.292,4.575l-0,36.038c-0,2.937 -0.25,4.771 -0.734,5.508c-0.491,0.734 -1.308,1.309 -2.454,1.729c-1.142,0.417 -2.558,0.63 -4.258,0.63l-2.275,-0l-0,1.495l30.887,0c12.167,0 21.642,-2.329 28.442,-6.991c6.8,-4.663 10.2,-11.404 10.2,-20.238c-0,-8.466 -3.179,-15.171 -9.546,-20.116" style="fill:#fff;"/><path d="M1236.6,660.743c-2.571,0 -4.171,-0.425 -4.804,-1.283c-0.63,-0.858 -0.942,-2.408 -0.942,-4.65l-0,-42.712c6.629,-0.042 11.446,0.683 14.437,2.17c2.996,1.492 5.48,4.092 7.45,7.809c1.963,3.708 2.946,8.633 2.946,14.775c0,15.925 -6.366,23.891 -19.087,23.891m27.937,-44.345c-6.362,-4.95 -16.058,-7.417 -29.096,-7.417l-30.891,-0l-0,1.496l2.279,-0c2.137,-0 3.812,0.333 5.029,0.991c1.221,0.667 1.929,1.43 2.125,2.3c0.192,0.867 0.288,2.388 0.288,4.575l-0,36.038c-0,2.937 -0.246,4.771 -0.734,5.508c-0.483,0.734 -1.308,1.309 -2.45,1.729c-1.141,0.417 -2.562,0.63 -4.258,0.63l-2.279,-0l-0,1.495l30.891,0c12.163,0 21.642,-2.329 28.438,-6.991c6.8,-4.663 10.2,-11.404 10.2,-20.238c-0,-8.466 -3.179,-15.171 -9.542,-20.116" style="fill:#fff;"/><path d="M1317.54,660.713c-5.017,0 -8.05,-0.366 -9.104,-1.1c-1.055,-0.733 -1.575,-2.975 -1.575,-6.729l-0,-15.421c4.7,0 8.166,0.925 10.391,2.784c2.217,1.858 3.642,5.158 4.254,9.912l1.934,0l-0,-28.671l-1.934,0c-1.104,8.63 -5.537,12.946 -13.304,12.946l-1.341,0l-0,-22.308l7.087,-0c4.525,-0 8.008,0.217 10.433,0.646c2.434,0.429 4.767,1.483 7,3.166c2.238,1.684 3.896,4.759 4.975,9.225l1.93,0l-0,-16.183l-57.767,0l-0,1.496l2.317,-0c2.179,-0 3.883,0.317 5.104,0.95c1.225,0.633 1.912,1.379 2.062,2.233c0.159,0.859 0.234,2.417 0.234,4.684l-0,36.037c-0,3.121 -0.471,5.213 -1.43,6.275c-0.95,1.058 -2.941,1.592 -5.97,1.592l-2.317,-0l-0,1.496l59.654,-0l3.125,-17.409l-1.887,0c-3.367,9.588 -11.33,14.379 -23.871,14.379" style="fill:#fff;"/><path d="M1407.31,629.753c-6.97,-2.733 -11.516,-4.883 -13.654,-6.442c-2.133,-1.558 -3.2,-3.316 -3.2,-5.279c0,-2.383 1.175,-4.196 3.534,-5.429c2.35,-1.233 4.929,-1.85 7.729,-1.85c4.833,0 9.1,1.471 12.8,4.404c3.708,2.938 6.016,6.55 6.941,10.834l2.084,-0l-0.538,-18.267l-1.546,-0c-0.666,2.508 -1.837,3.762 -3.508,3.762c-0.746,0 -3.046,-0.62 -6.9,-1.866c-3.858,-1.263 -7.275,-1.896 -10.258,-1.896c-6.017,-0 -11.079,1.504 -15.179,4.512c-4.096,3.009 -6.146,6.759 -6.146,11.246c-0,4.038 1.687,7.442 5.066,10.217c3.384,2.775 9.055,5.721 17.03,8.842c5.604,2.183 9.437,4.104 11.508,5.766c2.071,1.663 3.104,3.563 3.104,5.704c0.004,2.617 -1.283,4.63 -3.854,6.063c-2.571,1.425 -5.442,2.142 -8.6,2.142c-5.554,-0 -10.338,-1.671 -14.346,-5.005c-4.012,-3.333 -6.696,-7.633 -8.062,-12.895l-1.888,-0l0,20.683l1.888,-0c1.208,-2.183 2.933,-3.275 5.17,-3.275c1.109,-0 2.455,0.267 4.046,0.796c5.067,1.671 9.538,2.508 13.421,2.508c6.583,0 12.204,-1.579 16.871,-4.742c4.667,-3.162 7,-7.17 7,-12.025c-0,-3.304 -1.279,-6.383 -3.833,-9.241c-2.563,-2.85 -8.121,-5.942 -16.68,-9.267" style="fill:#fff;"/><path d="M1481.66,610.477c4.216,0 6.916,0.675 8.1,2.021c1.183,1.346 1.775,3.454 1.775,6.329l-0,22.338c-0,6.116 -0.763,10.375 -2.275,12.771c-1.521,2.4 -3.525,4.162 -6.017,5.295c-2.496,1.134 -5.529,1.7 -9.1,1.7c-3.883,0 -6.958,-0.679 -9.217,-2.041c-2.266,-1.354 -3.646,-3.025 -4.141,-5.013c-0.505,-1.987 -0.759,-4.729 -0.759,-8.212l0,-26.838c0,-3.608 0.509,-5.9 1.521,-6.883c1.021,-0.979 3.275,-1.467 6.775,-1.467l1.767,0l-0,-1.496l-35.629,0l-0,1.496c3.087,0 5.2,0.259 6.345,0.779c1.142,0.525 1.871,1.259 2.171,2.205c0.313,0.945 0.471,2.737 0.471,5.366l0,26.838c0,12.908 8.663,19.362 25.992,19.362c5.421,0 10.008,-0.641 13.766,-1.929c3.755,-1.283 6.592,-3.133 8.521,-5.55c1.925,-2.417 3.092,-4.933 3.488,-7.558c0.4,-2.617 0.6,-6.075 0.6,-10.359l-0,-20.804c-0,-3.708 0.829,-6.029 2.487,-6.958c1.659,-0.929 3.592,-1.392 5.804,-1.392l1.43,0l-0,-1.496l-23.875,0l-0,1.496Z" style="fill:#fff;"/><path d="M1572.48,660.713c-5.013,0 -8.046,-0.366 -9.1,-1.1c-1.054,-0.733 -1.584,-2.975 -1.584,-6.729l0,-15.421c4.705,0 8.167,0.925 10.388,2.784c2.229,1.858 3.65,5.158 4.262,9.912l1.934,0l-0,-28.671l-1.929,0c-1.109,8.63 -5.542,12.946 -13.305,12.946l-1.35,0l0,-22.308l7.096,-0c4.525,-0 8,0.217 10.434,0.646c2.429,0.429 4.762,1.483 6.995,3.166c2.242,1.684 3.892,4.759 4.975,9.225l1.93,0l-0,-16.183l-57.767,0l-0,1.496l2.312,-0c2.188,-0 3.888,0.317 5.109,0.95c1.229,0.633 1.912,1.379 2.066,2.233c0.155,0.859 0.23,2.417 0.23,4.684l0.004,36.037c-0,3.121 -0.479,5.213 -1.429,6.275c-0.955,1.058 -2.946,1.592 -5.98,1.592l-2.312,-0l-0,1.496l59.654,-0l3.129,-17.409l-1.896,0c-3.366,9.588 -11.325,14.379 -23.866,14.379" style="fill:#fff;"/><path d="M1652.57,645.078l-19.396,-36.1l-28.188,0l0,1.5l2.196,0c2.158,0 3.858,0.325 5.092,0.98c1.229,0.654 1.941,1.404 2.121,2.262c0.175,0.858 0.266,2.375 0.266,4.558l0,34.634c0,2.654 -0.2,4.487 -0.596,5.508c-0.4,1.021 -1.266,1.913 -2.6,2.675c-1.337,0.767 -3.254,1.15 -5.75,1.15l-0.729,0l0,1.5l23.638,0l-0,-1.5c-2.904,0 -5.188,-0.408 -6.85,-1.225c-1.654,-0.817 -2.613,-1.758 -2.871,-2.829c-0.254,-1.071 -0.388,-2.892 -0.388,-5.463l0.005,-38.583l26.883,49.6l1.229,0l26.454,-49.967l0,40.605c0,3.1 -0.466,5.187 -1.412,6.258c-0.934,1.067 -2.963,1.604 -6.067,1.604l-2.242,0l0,1.5l36.059,0l-0,-1.5l-2.238,0c-2.212,0 -3.912,-0.35 -5.108,-1.037c-1.196,-0.696 -1.892,-1.446 -2.079,-2.25c-0.196,-0.809 -0.292,-2.33 -0.292,-4.575l0,-36.105c0,-2.854 0.254,-4.658 0.771,-5.416c0.517,-0.75 1.333,-1.338 2.471,-1.759c1.129,-0.416 2.537,-0.625 4.237,-0.625l2.238,0l-0,-1.5l-28.113,0l-18.741,36.1Z" style="fill:#fff;"/><path d="M1742.81,631.831c-1.413,2.654 -5.863,3.979 -13.342,3.979l0,-23.684l2.079,0c8.925,0 13.384,3.917 13.384,11.755c-0,2.65 -0.709,5.3 -2.121,7.95m-8.754,-22.85l-30.075,-0l-0,1.495c3.441,0 5.762,0.305 6.954,0.9c1.196,0.605 1.933,1.359 2.204,2.25c0.267,0.9 0.404,2.555 0.404,4.963l0,35.546c0,3.125 -0.291,5.066 -0.871,5.829c-0.575,0.767 -1.595,1.337 -3.041,1.717c-1.459,0.375 -3.342,0.566 -5.65,0.566l-0,1.496l35.05,0l-0,-1.496c-3.471,0 -5.804,-0.308 -7,-0.921c-1.188,-0.612 -1.917,-1.37 -2.175,-2.279c-0.263,-0.908 -0.388,-2.546 -0.388,-4.912l0,-15.204c8.1,-0 14.279,-0.442 18.529,-1.313c4.255,-0.883 7.63,-2.496 10.121,-4.85c2.492,-2.358 3.742,-5.379 3.742,-9.071c-0,-9.812 -9.271,-14.716 -27.804,-14.716" style="fill:#fff;"/><path d="M1809.33,633.254c-2.908,1.767 -7.5,2.646 -13.766,2.646l-2.892,0l0,-23.987l5.438,-0c10.383,-0 15.579,4.083 15.579,12.241c0.004,4.304 -1.459,7.338 -4.359,9.1m22.405,23.146l-16.621,-18.542c10.233,-2.016 15.35,-6.608 15.35,-13.766c-0,-4.038 -1.817,-7.567 -5.438,-10.588c-3.625,-3.016 -12.304,-4.525 -26.033,-4.525l-32.083,0l-0,1.496c3.475,0 5.804,0.304 7,0.904c1.195,0.6 1.92,1.359 2.175,2.279c0.262,0.921 0.391,2.559 0.391,4.93l0,35.55c0,3.158 -0.296,5.112 -0.871,5.854c-0.575,0.75 -1.595,1.308 -3.05,1.687c-1.45,0.375 -3.333,0.567 -5.645,0.567l-0,1.5l35.325,-0l-0,-1.5c-3.446,-0 -5.763,-0.3 -6.963,-0.904c-1.196,-0.6 -1.929,-1.35 -2.196,-2.246c-0.271,-0.9 -0.404,-2.554 -0.404,-4.958l0,-15.359l4.546,0l22.212,24.967l21.755,-0l-0,-1.5c-1.98,-0.083 -3.542,-0.513 -4.688,-1.288c-1.146,-0.775 -2.729,-2.291 -4.762,-4.558" style="fill:#fff;"/><path d="M1880.92,660.713c-5.013,0 -8.05,-0.366 -9.1,-1.1c-1.059,-0.733 -1.58,-2.975 -1.58,-6.729l0,-15.421c4.705,0 8.167,0.925 10.392,2.784c2.225,1.858 3.646,5.158 4.258,9.912l1.93,0l-0,-28.671l-1.93,0c-1.104,8.63 -5.541,12.946 -13.304,12.946l-1.346,0l0,-22.308l7.092,-0c4.529,-0 8.004,0.217 10.429,0.646c2.434,0.429 4.767,1.483 7.004,3.166c2.234,1.684 3.892,4.759 4.975,9.225l1.925,0l0,-16.183l-57.766,0l-0,1.496l2.316,-0c2.184,-0 3.888,0.317 5.105,0.95c1.225,0.633 1.912,1.379 2.07,2.233c0.15,0.859 0.225,2.417 0.225,4.684l0,36.037c0,3.121 -0.47,5.213 -1.425,6.275c-0.954,1.058 -2.941,1.592 -5.975,1.592l-2.316,-0l-0,1.496l59.654,-0l3.125,-17.409l-1.888,0c-3.362,9.588 -11.325,14.379 -23.87,14.379" style="fill:#fff;"/><path d="M1943.06,629.753c-6.966,-2.733 -11.516,-4.883 -13.654,-6.442c-2.133,-1.558 -3.2,-3.316 -3.2,-5.279c0,-2.383 1.175,-4.196 3.534,-5.429c2.35,-1.233 4.929,-1.85 7.729,-1.85c4.833,0 9.1,1.471 12.804,4.404c3.704,2.938 6.012,6.55 6.942,10.834l2.079,-0l-0.538,-18.267l-1.541,-0c-0.671,2.508 -1.842,3.762 -3.513,3.762c-0.746,0 -3.042,-0.62 -6.9,-1.866c-3.858,-1.263 -7.275,-1.896 -10.258,-1.896c-6.017,-0 -11.075,1.504 -15.175,4.512c-4.096,3.009 -6.15,6.759 -6.15,11.246c-0,4.038 1.687,7.442 5.071,10.217c3.379,2.775 9.054,5.721 17.025,8.842c5.604,2.183 9.441,4.104 11.512,5.766c2.067,1.663 3.1,3.563 3.1,5.704c0.004,2.617 -1.279,4.63 -3.854,6.063c-2.571,1.425 -5.438,2.142 -8.6,2.142c-5.55,-0 -10.338,-1.671 -14.346,-5.005c-4.008,-3.333 -6.696,-7.633 -8.054,-12.895l-1.896,-0l0,20.683l1.896,-0c1.204,-2.183 2.929,-3.275 5.167,-3.275c1.104,-0 2.454,0.267 4.045,0.796c5.063,1.671 9.538,2.508 13.421,2.508c6.579,0 12.204,-1.579 16.867,-4.742c4.671,-3.162 7.004,-7.17 7.004,-12.025c0,-3.304 -1.279,-6.383 -3.837,-9.241c-2.559,-2.85 -8.117,-5.942 -16.68,-9.267" style="fill:#fff;"/><path d="M1988.57,645.173l10.567,-18.879l10.296,18.879l-20.863,0Zm42.575,7.584l-24.875,-44.909l-0.962,0l-24.68,43.688c-2.237,3.979 -4.179,6.683 -5.825,8.108c-1.645,1.429 -3.712,2.296 -6.208,2.6l0,1.5l22.946,0l-0,-1.5c-4.167,-0.204 -6.721,-0.687 -7.675,-1.454c-0.95,-0.762 -1.429,-1.729 -1.429,-2.892c-0,-1.183 0.479,-2.65 1.429,-4.404l2.892,-5.354l24.408,0l3.667,6.854c1.208,2.263 1.812,3.763 1.812,4.496c0,1.838 -2.254,2.754 -6.75,2.754l-1.392,0l0,1.5l33.4,0l0,-1.5c-2.366,-0.141 -4.233,-0.821 -5.591,-2.033c-1.367,-1.217 -3.084,-3.7 -5.167,-7.454" style="fill:#fff;"/><path d="M733.353,527.999c-26.412,-0 -39.617,-29.35 -39.617,-88.054c0,-59.621 13.288,-89.429 39.867,-89.429c26.133,-0 39.2,30.162 39.2,90.491c0,57.996 -13.15,86.992 -39.45,86.992m40.367,-175.15c-11.459,-7.5 -25.271,-11.246 -41.45,-11.246c-17.296,0 -31.796,4.792 -43.496,14.371c-11.704,9.587 -20.421,21.558 -26.146,35.917c-5.729,14.354 -8.592,29.95 -8.592,46.783c0,25.675 6.659,48.729 19.975,69.171c13.313,20.437 33.209,30.658 59.675,30.658c24.242,0 43.434,-9.775 57.584,-29.333c14.154,-19.554 21.229,-43.125 21.229,-70.709c-0,-19.733 -3.6,-37.062 -10.8,-51.983c-7.2,-14.925 -16.529,-26.133 -27.979,-33.629" style="fill:#fff;"/><path d="M962.956,467.531l-4.504,-0c-4.729,20.512 -10.454,34.975 -17.183,43.387c-6.725,8.417 -15.846,12.625 -27.354,12.625c-15.567,0 -24.3,-0.512 -26.188,-1.537c-1.891,-1.025 -3.366,-3.571 -4.421,-7.638c-1.058,-4.067 -1.583,-9.6 -1.583,-16.6l0,-121.05c0,-10.75 1.029,-17.983 3.088,-21.696c2.054,-3.712 6.416,-5.571 13.091,-5.571l6.509,0l-0,-5.2l-79.65,0l-0,5.2l5.004,0c4.612,0 8.225,1.15 10.841,3.45c2.613,2.3 4.125,4.967 4.546,8.009c0.417,3.041 0.625,8.312 0.625,15.808l0,124.971c0,10.821 -1.029,18.075 -3.087,21.75c-2.054,3.679 -6.367,5.517 -12.925,5.517l-5.004,-0l-0,5.195l132.525,0l5.67,-66.62Z" style="fill:#fff;"/><path d="M1078.38,469.439l-41.95,-125.188l-60.966,0l-0,5.2l4.758,0c4.671,0 8.338,1.134 11.008,3.396c2.667,2.267 4.196,4.884 4.588,7.85c0.383,2.971 0.583,8.242 0.583,15.809l0,120.091c0,9.196 -0.433,15.563 -1.296,19.096c-0.862,3.538 -2.737,6.629 -5.625,9.283c-2.895,2.65 -7.037,3.98 -12.429,3.98l-1.587,-0l-0,5.195l51.129,0l-0,-5.195c-6.288,-0 -11.221,-1.413 -14.804,-4.246c-3.588,-2.825 -5.659,-6.1 -6.217,-9.813c-0.554,-3.712 -0.829,-10.025 -0.829,-18.933l-0,-133.779l58.129,171.966l2.667,0l57.212,-173.241l0,140.779c0,10.754 -1.012,17.983 -3.041,21.696c-2.03,3.712 -6.413,5.571 -13.138,5.571l-4.833,-0l-0,5.195l77.975,0l-0,-5.195l-4.838,-0c-4.779,-0 -8.462,-1.205 -11.046,-3.609c-2.587,-2.404 -4.087,-5 -4.504,-7.796c-0.416,-2.795 -0.625,-8.079 -0.625,-15.862l0,-125.183c0,-9.9 0.554,-16.159 1.667,-18.775c1.112,-2.617 2.892,-4.655 5.333,-6.105c2.454,-1.45 5.509,-2.175 9.175,-2.175l4.838,0l-0,-5.2l-60.796,0l-40.538,125.188Z" style="fill:#fff;"/><path d="M1324.08,473.789l-4.083,0c-7.287,33.242 -24.492,49.863 -51.625,49.863c-10.842,-0 -17.404,-1.275 -19.683,-3.821c-2.279,-2.546 -3.421,-10.325 -3.421,-23.342l-0,-53.466c10.179,-0 17.662,3.22 22.475,9.654c4.812,6.437 7.883,17.896 9.221,34.371l4.166,-0l0,-99.405l-4.166,0c-2.396,29.917 -11.979,44.875 -28.779,44.875l-2.917,0l-0,-77.337l15.35,-0c9.783,-0 17.304,0.742 22.554,2.229c5.258,1.483 10.304,5.146 15.138,10.979c4.841,5.834 8.425,16.496 10.762,31.988l4.171,-0l-0,-56.125l-124.938,-0l0,5.2l5.005,-0c4.725,-0 8.412,1.096 11.05,3.287c2.641,2.196 4.129,4.775 4.462,7.746c0.338,2.971 0.5,8.383 0.5,16.233l0,124.971c0,10.821 -1.025,18.075 -3.087,21.75c-2.055,3.675 -6.363,5.517 -12.925,5.517l-5.005,-0l0,5.196l129.025,-0l6.75,-60.363Z" style="fill:#fff;"/><path d="M1396.1,519.301c-1.358,-2.97 -2.041,-8.345 -2.041,-16.125l-0,-148.1c14.341,-0.141 24.754,2.371 31.233,7.53c6.475,5.162 11.842,14.183 16.096,27.054c4.25,12.875 6.383,29.954 6.383,51.241c0,55.238 -13.762,82.855 -41.287,82.855c-5.559,-0 -9.025,-1.484 -10.384,-4.455m69.388,-9.391c14.712,-16.159 22.062,-39.55 22.062,-70.175c0,-29.35 -6.883,-52.604 -20.645,-69.754c-13.759,-17.15 -34.734,-25.73 -62.921,-25.73l-66.809,0l0,5.2l4.925,0c4.617,0 8.238,1.15 10.88,3.45c2.641,2.3 4.17,4.95 4.591,7.955c0.417,3.008 0.621,8.295 0.621,15.862l0,124.971c0,10.187 -0.525,16.55 -1.583,19.1c-1.054,2.542 -2.821,4.542 -5.296,5.992c-2.471,1.45 -5.542,2.175 -9.213,2.175l-4.925,-0l0,5.195l66.809,0c26.296,0 46.796,-8.079 61.504,-24.241" style="fill:#fff;"/><path d="M1579.54,528.954l-4.916,-0c-4.671,-0 -8.342,-1.146 -11.013,-3.446c-2.666,-2.3 -4.196,-4.95 -4.583,-7.958c-0.396,-3.004 -0.588,-8.288 -0.588,-15.859l0,-124.975c0,-10.745 1.025,-17.979 3.088,-21.695c2.054,-3.713 6.421,-5.567 13.096,-5.567l4.916,-0l0,-5.2l-78.062,-0l-0,5.2l5.004,-0c4.617,-0 8.229,1.15 10.842,3.446c2.612,2.3 4.129,4.966 4.546,8.008c0.416,3.046 0.625,8.313 0.625,15.808l0.004,124.975c-0,10.821 -1.038,18.071 -3.092,21.746c-2.05,3.679 -6.367,5.517 -12.925,5.517l-5.004,-0l-0,5.2l78.062,-0l0,-5.2Z" style="fill:#fff;"/><path d="M1674.78,538.502c22.687,0 41.975,-10.537 57.879,-31.612l0.004,-16.446c-15.737,23.271 -32.587,34.904 -50.546,34.904c-32.579,0 -48.866,-29.596 -48.866,-88.796c-0,-26.666 4.625,-47.333 13.883,-62.008c9.254,-14.675 21.171,-22.013 35.738,-22.013c11.841,-0.004 22.041,4.771 30.604,14.321c8.566,9.546 14.379,22.525 17.433,38.934l4.254,-0l0,-65.884l-4.254,0c-1,9.125 -4.167,13.688 -9.508,13.688c-1.834,-0 -6.113,-1.663 -12.838,-4.988c-11.741,-5.796 -22.833,-8.7 -33.279,-8.7c-22.575,0 -41.829,10.134 -57.754,30.396c-15.933,20.267 -23.9,44.4 -23.9,72.408c0.004,25.109 6.842,47.35 20.521,66.73c13.675,19.379 33.887,29.066 60.629,29.066" style="fill:#fff;"/><path d="M1835.92,350.513c26.13,0 39.196,30.163 39.196,90.496c0,57.996 -13.15,86.988 -39.446,86.988c-26.416,-0 -39.62,-29.346 -39.62,-88.05c-0,-59.621 13.287,-89.434 39.87,-89.434m0.08,187.988c24.241,-0 43.437,-9.775 57.591,-29.329c14.15,-19.559 21.221,-43.129 21.221,-70.709c0,-19.733 -3.596,-37.062 -10.8,-51.987c-7.2,-14.921 -16.525,-26.129 -27.975,-33.629c-11.454,-7.496 -25.275,-11.246 -41.458,-11.246c-17.288,-0 -31.784,4.796 -43.492,14.375c-11.704,9.583 -20.421,21.554 -26.142,35.912c-5.729,14.359 -8.595,29.955 -8.595,46.788c0.004,25.671 6.662,48.729 19.979,69.171c13.316,20.437 33.204,30.654 59.671,30.654" style="fill:#fff;"/><path d="M1949.85,527.152c2.392,-0 5.309,0.921 8.754,2.758c10.95,5.796 20.63,8.7 29.021,8.7c14.234,0 26.4,-5.479 36.492,-16.446c10.087,-10.962 15.133,-24.858 15.133,-41.691c0,-11.459 -2.766,-22.138 -8.296,-32.038c-5.529,-9.904 -17.558,-20.617 -36.07,-32.146c-15.067,-9.479 -24.913,-16.921 -29.53,-22.333c-4.608,-5.413 -6.92,-11.513 -6.92,-18.3c-0,-8.275 2.545,-14.55 7.633,-18.829c5.092,-4.279 10.662,-6.421 16.725,-6.421c10.45,-0 19.683,5.092 27.687,15.279c8.005,10.183 13.013,22.704 15.013,37.554l4.504,0l-1.162,-63.337l-3.342,-0c-1.45,8.7 -3.975,13.054 -7.592,13.054c-1.608,-0 -6.583,-2.158 -14.925,-6.475c-8.341,-4.383 -15.737,-6.579 -22.183,-6.579c-13.013,-0 -23.954,5.216 -32.821,15.65c-8.871,10.433 -13.304,23.429 -13.304,38.987c-0,14.004 3.658,25.817 10.971,35.434c7.308,9.62 19.583,19.841 36.821,30.662c12.12,7.567 20.42,14.233 24.895,19.996c4.475,5.767 6.709,12.358 6.709,19.787c-0,9.055 -2.779,16.055 -8.338,21.005c-5.558,4.95 -11.758,7.429 -18.6,7.429c-12.008,-0 -22.35,-5.788 -31.025,-17.35c-8.671,-11.563 -14.483,-26.467 -17.429,-44.717l-4.087,0l-0,71.717l4.087,-0c2.617,-7.567 6.342,-11.35 11.179,-11.35" style="fill:#fff;"/><path d="M502.962,646.116c-25.766,15.392 -56.487,20.525 -87.908,21.137c-89.721,1.767 -182.163,-79.275 -182.163,-200.837c0.909,-152.396 117.817,-200.846 182.163,-200.846c66.154,0.883 123.004,33.863 147.475,107.858l0.342,-1.091l-0,1.762l50.262,0l0,-160.954l-50.262,0l-0,52.783c-44.955,-39.72 -102.792,-60.108 -158.692,-59.375c-138.633,1.821 -247.413,117.03 -247.413,260.3c0,147.55 92.442,260.305 251.038,259.421c110.333,-0.608 212.975,-71.35 215.692,-167.362l-49,0.071c-23.646,53.304 -39.609,68.066 -71.534,87.133" style="fill:#fff;"/><path d="M407.221,333.47l13.68,-0l-0,9.287l-13.68,0l0,-9.287Zm24.925,93.937c13.334,4.321 22.084,10.3 26.092,17.779c0.288,3.309 -0.558,7.167 -2.083,8.813c-2.313,2.504 -8.238,3.504 -14.025,2.504c-3.417,-0.592 -6.642,-1.875 -8.721,-2.833c-1.825,-2.442 -6.163,-5.996 -16.5,-8.854l-2.596,-0.667c-3.108,-0.75 -6.679,-1.442 -10.812,-2.025c-1.288,-0.183 -2.525,-0.338 -3.742,-0.471l-2.604,-0.275c-2.138,-0.208 -4.196,-0.371 -6.217,-0.529c-8.292,-0.65 -16.125,-1.263 -28.162,-4.738l-0.088,-0.02c-11.129,-2.425 -16.362,-8.688 -18.796,-13.513c-3.571,-7.096 -3.516,-15.846 0.146,-23.412c7.125,-14.721 25.517,-16.192 39.1,-12.98c4.613,1.092 7.733,3.346 9.271,6.692c2.096,4.579 0.754,10.121 -0.588,12.542c-1.845,3.329 -8.129,6.316 -14.662,2.987c-0.475,-0.241 -0.717,-0.329 -0.896,-0.396c-0.246,-0.095 -0.387,-0.195 -3.346,-2.495c-4.516,-3.509 -9.891,-2.8 -14.021,1.854c-1.287,1.45 -1.858,3.229 -1.645,5.146c0.295,2.637 2.112,5.466 4.745,7.387l0.105,0.067c6.17,3.658 18.608,2.783 25.287,2.312c0.925,-0.066 1.738,-0.125 2.388,-0.158c2.079,-0.108 4.579,-0.108 7.329,-0.004l2.612,0.121c4.313,0.237 9.088,0.691 13.796,1.325l3.725,0.537c5.583,0.875 10.867,1.996 14.908,3.304m26.675,-6.662c2.05,-1.492 3.446,-4.184 3.725,-7.192c0.28,-2.954 -0.595,-5.733 -2.391,-7.625c-1.904,-2.004 -4.679,-3.212 -7.617,-3.308c-3.05,-0.109 -5.937,0.95 -8.133,2.966c-2.325,2.134 -3.813,3.034 -6.921,4.196c-1.683,0.629 -8.804,2.396 -14.013,-4.283c-1.775,-2.271 -2.462,-6.329 -1.254,-10.2c0.825,-2.65 3.675,-7.338 9.992,-8.958c15.446,-3.967 34.542,-0.834 41.154,12.825c3.817,7.879 4.633,16.225 2.363,22.904c-3.03,2.746 -8.309,5.95 -15.196,7.666c-6.542,1.625 -12.688,0.709 -16.413,-0.229c-3.075,-1.541 -6.508,-2.946 -10.304,-4.216c9.35,0.229 19.458,-0.63 25.008,-4.546m-42.162,39.937c0.071,-4.458 0.142,-8.875 0.208,-13.225c11.65,3.354 15.046,7.579 15.267,9.304c0.212,1.65 -0.279,3.15 -1.383,4.213c-0.905,0.871 -2.134,1.371 -3.471,1.45c-2.4,-0.696 -4.859,-1.188 -7.321,-1.45c-0.979,-0.104 -2.092,-0.196 -3.3,-0.292m-16.867,-5.841c2.542,-5.275 7.367,-7.805 10.642,-8.95c1.354,0.275 2.642,0.562 3.837,0.862c-0.07,4.517 -0.145,9.104 -0.216,13.742c-0.217,-0.021 -0.421,-0.034 -0.646,-0.05c-4.167,-0.292 -9.029,-0.646 -13.604,-1.25l-0.013,-4.354Zm-13.454,-11.83c1.492,0.134 2.946,0.25 4.396,0.363c2.083,0.162 4.212,0.337 6.425,0.55l0.037,14.883c-4.425,-0.716 -8.37,-1.733 -10.841,-3.271c-1.359,-0.845 -2.167,-1.958 -2.479,-3.404c-0.725,-3.404 1.525,-7.571 2.462,-9.121m63.904,39.538c1.113,1.946 1.663,4.162 1.671,6.433c-2.054,3.488 -8.117,5.275 -13.854,5.125c-3.521,-0.091 -6.246,-1.279 -8.204,-2.583c-0.884,-2.408 -2.796,-4.667 -5.559,-6.425c-7.083,-4.525 -14.012,-5.321 -23.604,-6.425c-4.529,-0.521 -9.666,-1.113 -15.671,-2.204c-15.966,-2.913 -22.35,-11.55 -24.895,-17.788c2.629,-11.554 11.629,-15.4 17.545,-16.679c2.034,0.308 3.967,0.546 5.838,0.738c-1.225,2.245 -2.958,6.266 -2.183,9.9c0.45,2.12 1.67,3.812 3.625,5.029c5.979,3.721 18.862,4.633 28.266,5.304c2.525,0.179 4.704,0.333 6.463,0.517c8.783,0.929 17.441,4.983 23.821,10.795l-0.013,0.188c0.071,0.004 0.146,0.004 0.217,0.008c2.621,2.421 4.862,5.138 6.537,8.067m-34.141,13.217c0.062,-3.905 0.125,-7.809 0.183,-11.7c2.262,0.77 4.429,1.77 6.583,3.15c3.421,2.183 5.25,5.179 4.9,8.02c-0.133,1.109 -0.621,2.046 -1.325,2.655c-3.387,-1.025 -6.866,-1.675 -10.341,-2.125m-16.23,-8.038c1.888,-3.142 5.542,-4.729 8.496,-5.517c1.867,0.292 3.629,0.642 5.325,1.08c-0.066,4.045 -0.129,8.108 -0.191,12.17c-3.246,-0.333 -6.463,-0.529 -9.563,-0.712c-1.379,-0.083 -2.729,-0.163 -4.054,-0.254l-0.013,-6.767Zm-11.416,-8.104c3.175,0.5 6.091,0.875 8.791,1.2l0.034,13.467c-2.409,-0.213 -4.675,-0.492 -6.717,-0.93c-3.329,-0.708 -5.329,-2.004 -5.942,-3.845c-1.1,-3.292 2.23,-8.055 3.834,-9.892m54.054,39.821c-2.333,3.233 -7.979,4.946 -12.05,4.212c-3.079,-0.554 -6.275,-2.446 -8.617,-4.121c-1.458,-3.604 -4.758,-5.879 -7.558,-7.5c-0,0 -3.363,-2.616 -14.446,-6.212c-1.837,-0.596 -4.983,-0.921 -4.983,-0.921c-0,0 -6.563,-0.187 -15.259,-1.146c-2.908,-1.166 -5.887,-2.5 -8.92,-4.062c-5.23,-3.263 -7.021,-7.688 -7.45,-11.454c3.912,-7.463 13.475,-9.296 19.283,-9.696c0.662,0.146 1.337,0.283 2.037,0.412c0.338,0.063 0.663,0.117 0.996,0.175c-1.762,2.325 -4.758,7.088 -3.4,11.159c0.917,2.762 3.563,4.625 7.863,5.541c4.033,0.867 8.766,1.15 13.775,1.446c11.208,0.667 23.904,1.421 33.633,8.913c3.804,4.82 5.088,9.35 5.096,13.254m-26.946,10.296c0.067,-4.321 0.138,-8.667 0.204,-13.034c1.613,0.946 3.317,2.367 3.838,4.296c0.571,2.096 -1.425,5.758 -4.042,8.738m-15.617,-9.617c2.817,-2.813 8.984,-4.313 12.35,-4.95c0.063,0.021 0.134,0.037 0.192,0.058c0.017,0 0.279,0.088 0.696,0.242c-0.075,4.529 -0.146,9.037 -0.217,13.517c-3.879,-1.163 -7.858,-2.08 -11.521,-2.917c-0.5,-0.117 -0.995,-0.229 -1.483,-0.342l-0.017,-5.608Zm-15.312,-2.075c0.392,-5.529 3.5,-7.525 4.946,-8.163c2.729,0.796 5.316,1.45 7.741,2.013l0.03,13.221c-7.309,-1.759 -12.963,-3.592 -12.717,-7.071m48.15,26.517c0.379,1.02 0.962,2.875 1.112,5.241c-0.775,2.438 -2.458,4.725 -5.608,5.092c-3.5,0.408 -7.267,-1.55 -9.504,-2.996c-0.054,-0.171 -0.096,-0.342 -0.167,-0.512c-3.016,-7.205 -16.237,-9.73 -21.783,-10.484c-12.4,-1.679 -29.017,-5.454 -30.954,-18.7c2.429,-6.887 10.85,-12.779 13.979,-11.637c1.787,0.654 2.937,1.3 3.642,1.779c-0.746,1.433 -1.305,3.237 -1.467,5.521c-0.442,6.262 8.483,8.304 18.812,10.666c5.567,1.275 11.88,2.721 17.309,4.946c8.329,3.404 13.112,7.034 14.629,11.084m-17.679,14.062c0.041,-2.596 0.083,-5.212 0.125,-7.854c0.404,0.5 0.741,1.025 0.975,1.575c0.775,1.85 0.391,3.954 -1.1,6.279m-15.079,-5.467c3.075,-3.904 9.345,-4.662 12.395,-4.791c0.084,0.05 0.155,0.108 0.238,0.158c-0.063,3.804 -0.121,7.575 -0.179,11.288c-2.638,-0.417 -5.113,-0.746 -7.325,-1.038c-1.896,-0.25 -3.592,-0.479 -5.117,-0.721l-0.012,-4.896Zm-9.646,-7.183c1.708,-1.987 4.762,-2.529 6.2,-2.546c0.271,0.038 0.546,0.079 0.816,0.121l0.034,14.029c-5.025,-1.025 -7.521,-2.487 -8.179,-6.071c-0.425,-2.312 -0.042,-4.17 1.129,-5.533m39.7,34.1c-4.092,1.771 -11.871,1 -14.417,0.683c-0.504,-1.345 -1.371,-2.533 -2.487,-3.433c-0.238,-0.917 -0.884,-2.525 -2.913,-3.854c-5.971,-3.908 -11.075,-5.071 -11.075,-5.071l-1.371,-0.275c-5.129,1.692 -8.083,1.792 -13.3,0.775c-2.404,-1.071 -4.6,-2.308 -6.383,-3.754c-4.075,-3.979 -5.967,-8.146 -5.617,-12.388c0.059,-0.758 0.209,-1.491 0.4,-2.208c1.971,-2.2 5.321,-3.546 8.679,-3.675c2.584,-0.104 4.075,0.8 4.942,1.775c-0.117,1.021 -0.067,2.121 0.15,3.3c1.308,7.125 7.996,8.004 18.121,9.333c2.6,0.342 5.546,0.734 8.708,1.267c8.084,1.358 12.159,5.408 14.154,8.571c1.742,2.758 2.584,5.992 2.409,8.954m-29.984,2.863c2.888,-3.946 8.625,-3.905 11.492,-3.6c0.213,0.17 0.404,0.358 0.575,0.55c-0.029,1.8 -0.058,3.575 -0.083,5.333c-3.713,-0.708 -6.846,-0.467 -7.379,-0.421c-0.396,-0.004 -0.813,0 -1.25,0.004c-1.013,0.013 -2.167,0.017 -3.35,-0.016l-0.005,-1.85Zm-7.083,-5.921c0.946,-1.046 1.967,-1.271 3.038,-1.704c0.883,-0.321 1.262,-0.78 1.42,-0.875l0.025,8.966c-2.066,1.013 -3.933,0.559 -4.916,-0.387c-0.479,-0.459 -0.7,-1.013 -0.7,-1.738l-0.009,-0.1c-0.141,-1.762 0.238,-3.162 1.142,-4.162m32.808,23.241c0.117,0.342 0.184,0.75 0.217,1.196c-2.562,1.775 -7.979,1.242 -10.317,0.904c-1.254,-2.375 -4.462,-4.908 -12.312,-5.454c-13.542,-0.941 -25.221,-6.946 -27.179,-13.475c1.2,-3.058 5.6,-6.008 8.191,-6.158c2.205,-0.125 3.855,1.171 4.934,1.746c-0.117,0.721 -0.15,1.491 -0.084,2.316c0.013,1.38 0.509,2.555 1.475,3.484c2.713,2.608 8.5,2.558 12.725,2.525c0.459,-0.009 0.888,-0.009 1.292,-0.009l0.133,-0.008c0.055,-0.004 5.271,-0.5 10.109,1.329c4.629,1.746 9.416,7.517 10.816,11.604m-22.445,5.68c3.85,-2.859 6.9,-3.063 8.425,-2.909c-0.03,1.784 -0.059,3.546 -0.084,5.267c-3.021,-1.267 -6.029,-2.175 -8.341,-2.358m-8.321,-2.609c0.146,-1.775 1.454,-3.187 2.475,-4.033l0.016,6.454c-0.929,-0.179 -1.616,-0.458 -2.02,-0.858c-0.234,-0.234 -0.542,-0.646 -0.471,-1.563m27.879,18.063c-0.075,5.475 -5.179,6.879 -8.221,6.291c0.013,-0.137 0.017,-0.275 0.033,-0.4c0.25,-2.45 -1.408,-4.1 -4.866,-5.516c-0,-0 -9.604,-1.338 -20.884,-6.984c-4.733,-2.366 -7.97,-5.604 -7.837,-8.966c0.029,-0.646 0.125,-1.259 0.258,-1.859c3.675,-3.312 8.363,-1.654 11.05,-0.204c0.038,1.163 0.425,2.146 1.204,2.917c0.905,0.892 2.275,1.446 4.184,1.687c0.791,0.08 1.671,0.134 2.758,0.092c0.638,0 0.896,0.033 1.625,-0.012c4.325,-0.263 14.208,4.337 18.15,7.833c1.529,1.358 2.304,3.192 2.546,5.121m-11.946,34.754c0,1.171 -0.758,2.45 -2.083,3.508c-1.242,0.996 -2.817,1.634 -4.013,1.634c-0.312,-0 -0.583,-0.038 -0.804,-0.13c-1.983,-0.766 -3.387,-2.92 -3.812,-3.65l-0.075,-31.262c1.491,-1.371 4.158,-2.996 8.066,-2.388c1.525,0.575 2.563,1.125 3.179,1.688c-0.283,18.275 -0.458,29.846 -0.458,30.6m-14.55,-31.213c-2.346,1.667 -6.379,3.346 -10.608,-0.225c-1.517,-3.491 -1.375,-7.204 -1.071,-9.454c3.046,2.092 8.621,4.559 11.942,5.946c-0.071,0.763 -0.171,1.992 -0.263,3.733m0.921,-328.191c-0,-1.696 0.287,-3.346 0.842,-4.934c2.65,-2.245 6.104,-3.616 9.891,-3.616c8.321,-0 15.092,6.579 15.092,14.671c-0,2.687 -0.758,5.2 -2.063,7.366c-2.383,1.313 -5.054,2.013 -7.816,2.013c-8.792,-0 -15.946,-6.954 -15.946,-15.5m2.246,79.166l-0.071,-30.337l16.35,0.012c-0.117,7.263 -0.592,37.092 -1.204,75.588c-5.096,-0.708 -10.3,-1.208 -14.971,-1.463l-0.104,-43.287c0.083,-0.046 0.162,-0.088 0.246,-0.138l-0.246,-0.375Zm29.337,-55.95l0,10.975l-5.433,0l-0,-0.208l-22.8,0l-0,-10.767l5.462,0c0.634,0.067 1.271,0.105 1.921,0.105c0.646,-0 1.288,-0.038 1.917,-0.105l18.933,0Zm2.921,23.45c2,-1.195 5.221,-3.687 8.629,-6.316c4,-3.092 8.529,-6.588 11.021,-7.892c6.325,-3.312 18.013,0.188 36.054,7.35c25.271,10.029 42.454,15.088 53.142,18.013c0.033,0.008 3.267,1.008 6.467,2.479c1.741,0.804 4.229,3.733 3.966,5.979c-0.225,1.971 -2.7,2.904 -4.737,3.342c-8.371,1.791 -13.467,-0.417 -19.375,-2.975c-1.05,-0.45 -2.113,-0.913 -3.221,-1.363c-2.638,-1.075 -6.654,-2.612 -10.904,-4.242c-8.167,-3.125 -17.413,-6.666 -22.363,-8.962c-7.546,-3.5 -19.658,-8.725 -24.137,-10.542c-5.504,-2.229 -11.196,-1.35 -16.471,2.534c-3.083,2.27 -5.783,5.062 -8.396,7.758c-2.275,2.35 -4.421,4.567 -6.408,5.962c-3.85,2.688 -13.334,3.009 -16.809,1.717c0.071,-4.396 0.121,-7.692 0.155,-9.692c2.016,0.346 7.379,0.442 13.387,-3.15m65.829,17.28c-14.533,-6.725 -33.025,-17 -39.812,-20.825c2.496,-0.509 5.008,-0.263 7.521,0.754c4.354,1.762 16.629,7.062 24.016,10.487c5.034,2.338 14.329,5.896 22.529,9.038c4.242,1.621 8.246,3.154 10.855,4.216c1.087,0.446 2.141,0.896 3.166,1.346c1.367,0.588 2.725,1.171 4.096,1.696c-5.542,1.833 -17.321,0.254 -32.371,-6.712m-21.7,1.75c-9.891,-5.709 -21.5,-15.975 -25.033,-19.184c0.183,-0.141 0.362,-0.287 0.55,-0.425c1.033,-0.762 2.075,-1.383 3.125,-1.875c4.183,2.379 25.546,14.434 41.942,22.021c4.054,1.879 7.995,3.421 11.725,4.621c-6.667,7.992 -20,1.954 -32.309,-5.158m9.621,12.975c-4.25,1.408 -10.717,-0.08 -17.287,-3.975c-8.492,-5.038 -20.946,-17.575 -24.642,-21.384c1.696,-1.754 3.437,-3.533 5.271,-5.15c3.325,3.038 15.241,13.671 25.704,19.717c3.817,2.2 9.342,5.387 15.108,7.417c-0.937,1.629 -2.325,2.766 -4.154,3.375m-21.362,1.558c-4.588,0.442 -9.634,-2.408 -12.83,-5.221c-4.504,-3.971 -11.466,-12.967 -13.733,-15.946c1.375,-1.096 2.767,-2.446 4.2,-3.904c3.888,4.008 16.283,16.479 25.079,21.696c0.704,0.417 1.4,0.808 2.096,1.171c-1.337,1.275 -2.95,2.021 -4.812,2.204m-16.438,1.183c-2.521,0.1 -4.929,-0.866 -7.037,-2.846c-6.43,-5.629 -10.971,-12.858 -12.784,-16.008c2.784,-0.312 5.509,-0.979 7.554,-2.05c2.263,2.988 9.355,12.171 14.125,16.375c0.996,0.875 2.155,1.75 3.421,2.55c-1.504,1.175 -3.383,1.896 -5.279,1.979m-29.779,-4.033c0.092,-5.825 0.179,-10.946 0.246,-15.229c1.791,0.471 4.25,0.691 6.854,0.612c1.167,2.159 5.142,9.05 11.262,15.204c-8.541,4.688 -16.254,0.705 -18.362,-0.587m-38.525,0.225c5.917,-6.058 9.762,-12.725 10.908,-14.842c2.459,0.071 4.784,-0.121 6.542,-0.533l0.037,15.992c-7.9,4.045 -15.004,0.812 -17.487,-0.617m-4.738,0.962c-2.104,1.98 -4.516,2.946 -7.037,2.846c-1.896,-0.083 -3.775,-0.804 -5.279,-1.979c1.271,-0.8 2.429,-1.675 3.421,-2.55c4.77,-4.204 11.866,-13.387 14.129,-16.375c2.046,1.071 4.766,1.738 7.554,2.05c-1.817,3.15 -6.354,10.379 -12.788,16.008m-23.475,1.663c-1.862,-0.183 -3.475,-0.929 -4.812,-2.204c0.696,-0.363 1.396,-0.754 2.096,-1.171c8.8,-5.217 21.196,-17.688 25.083,-21.696c1.433,1.458 2.825,2.808 4.196,3.904c-2.263,2.979 -9.225,11.975 -13.733,15.946c-3.196,2.813 -8.238,5.663 -12.83,5.221m-21.358,-1.558c-1.829,-0.609 -3.221,-1.746 -4.158,-3.375c5.766,-2.03 11.291,-5.217 15.112,-7.417c10.459,-6.046 22.379,-16.679 25.7,-19.717c1.838,1.617 3.575,3.396 5.275,5.15c-3.7,3.809 -16.154,16.346 -24.646,21.384c-6.57,3.895 -13.033,5.383 -17.283,3.975m-22.692,-7.817c3.73,-1.2 7.675,-2.742 11.73,-4.621c16.391,-7.587 37.758,-19.642 41.937,-22.021c1.05,0.492 2.092,1.113 3.129,1.875c0.184,0.138 0.367,0.284 0.546,0.425c-3.533,3.209 -15.137,13.475 -25.029,19.184c-12.308,7.112 -25.646,13.15 -32.313,5.158m-21.766,-0.196c1.379,-0.525 2.733,-1.108 4.1,-1.696c1.029,-0.45 2.079,-0.9 3.166,-1.346c2.613,-1.062 6.617,-2.595 10.855,-4.216c8.2,-3.142 17.495,-6.7 22.529,-9.038c7.387,-3.425 19.662,-8.725 24.021,-10.487c2.508,-1.017 5.02,-1.263 7.516,-0.754c-6.787,3.825 -25.279,14.1 -39.812,20.825c-15.05,6.966 -26.829,8.545 -32.375,6.712m-16.338,-1.037c-2.033,-0.438 -4.508,-1.371 -4.737,-3.342c-0.263,-2.25 2.229,-5.175 3.966,-5.979c3.2,-1.471 6.438,-2.471 6.467,-2.479c10.688,-2.925 27.875,-7.984 53.146,-18.013c18.042,-7.162 29.725,-10.662 36.05,-7.35c2.496,1.304 7.025,4.804 11.021,7.892c3.412,2.629 6.629,5.121 8.633,6.316c5.867,3.513 11.121,3.496 13.242,3.171l0.021,9.775c-3.688,1.171 -12.788,0.796 -16.53,-1.821c-1.991,-1.395 -4.137,-3.612 -6.412,-5.962c-2.608,-2.696 -5.313,-5.488 -8.396,-7.758c-5.275,-3.884 -10.967,-4.763 -16.467,-2.534c-4.483,1.817 -16.591,7.042 -24.137,10.542c-4.95,2.296 -14.204,5.837 -22.367,8.962c-4.246,1.63 -8.262,3.167 -10.904,4.242c-1.104,0.45 -2.171,0.913 -3.217,1.363c-5.908,2.558 -11.008,4.766 -19.379,2.975m158.884,13.062c3.145,0 6.675,-0.75 10.287,-2.887c0.229,0.204 0.45,0.416 0.683,0.62c2.467,2.321 5.371,3.538 8.43,3.538c0.17,-0 0.337,-0.004 0.508,-0.008c2.767,-0.125 5.512,-1.292 7.546,-3.18c2.458,1.209 5.166,2.038 7.833,2.038c0.4,-0 0.8,-0.017 1.2,-0.058c2.783,-0.271 5.133,-1.467 7,-3.55c3.767,1.662 7.367,2.533 10.525,2.533c1.592,-0 3.075,-0.217 4.417,-0.663c2.6,-0.858 4.596,-2.566 5.837,-4.97c2.467,0.695 4.942,1.141 7.304,1.141c4.409,0 8.442,-1.504 11.363,-5.583c5.2,1.483 9.908,2.25 13.812,2.25c3.713,-0 6.7,-0.696 8.7,-2.108c2.188,0.608 4.513,1.012 7.134,1.012c1.937,0 4.041,-0.212 6.362,-0.712c5.192,-1.113 6.546,-3.621 6.767,-5.534c0.412,-3.554 -2.888,-7.375 -5.442,-8.55c-3.358,-1.546 -6.658,-2.562 -6.837,-2.616c-10.667,-2.921 -27.759,-7.95 -52.904,-17.934c-19.213,-7.625 -31.005,-11.037 -38.271,-7.233c-2.7,1.408 -7.125,4.829 -11.409,8.137c-3.345,2.584 -6.504,5.025 -8.375,6.142c-2.637,1.579 -5.037,2.329 -6.987,2.671l-0,-10.454l8.037,-0l0,-16.042l-14.079,0c4.992,-3.046 8.325,-8.425 8.325,-14.562c0,-9.488 -7.941,-17.205 -17.7,-17.205c-9.758,0 -17.7,7.717 -17.7,17.205c0,6.137 3.334,11.516 8.321,14.562l-14.942,0l0,16.042l7.6,-0l0,10.325c-1.82,-0.392 -3.975,-1.138 -6.32,-2.542c-1.867,-1.117 -5.025,-3.558 -8.375,-6.142c-4.28,-3.308 -8.709,-6.729 -11.405,-8.137c-7.27,-3.808 -19.062,-0.392 -38.275,7.233c-25.145,9.984 -42.237,15.013 -52.904,17.934c-0.179,0.054 -3.479,1.07 -6.833,2.616c-2.55,1.175 -5.858,4.996 -5.442,8.55c0.221,1.913 1.575,4.421 6.767,5.534c2.321,0.5 4.421,0.712 6.358,0.712c2.625,0 4.946,-0.404 7.134,-1.012c2,1.412 4.987,2.108 8.7,2.108c3.908,-0 8.616,-0.767 13.816,-2.25c2.921,4.079 6.954,5.583 11.359,5.583c2.366,0 4.841,-0.446 7.308,-1.141c1.237,2.404 3.237,4.112 5.833,4.97c1.342,0.446 2.825,0.663 4.421,0.663c3.158,-0 6.754,-0.871 10.521,-2.533c1.871,2.083 4.221,3.283 7.004,3.55c0.396,0.041 0.796,0.058 1.196,0.058c2.667,-0 5.379,-0.829 7.833,-2.038c2.034,1.888 4.779,3.055 7.55,3.18c0.171,0.004 0.338,0.008 0.504,0.008c3.059,-0 5.963,-1.217 8.43,-3.538c0.366,-0.32 0.72,-0.65 1.075,-0.979c1.533,0.929 5.912,3.246 11.491,3.246c2.446,0 5.121,-0.446 7.888,-1.646l0.096,41.809c-2.8,-0.105 -5.35,-0.105 -7.467,0.004c-0.663,0.033 -1.488,0.096 -2.433,0.158c-5.917,0.417 -18.205,1.283 -23.692,-1.917c-2.017,-1.483 -3.454,-3.675 -3.667,-5.591c-0.133,-1.221 0.209,-2.304 1.025,-3.221c1.521,-1.717 5.584,-5.292 10.421,-1.529c3.321,2.579 3.383,2.629 4.033,2.875c0.13,0.046 0.292,0.112 0.625,0.283c7.325,3.729 15.455,0.867 18.171,-4.033c1.638,-2.954 3.163,-9.325 0.671,-14.771c-1.883,-4.104 -5.596,-6.838 -11.033,-8.121c-14.538,-3.442 -34.279,-1.742 -42.075,14.358c-3.996,8.255 -4.046,17.83 -0.125,25.605c2.391,4.754 7.241,10.754 16.879,13.866c-2.654,3.763 -3.971,11.454 -1.696,19.292c1.154,3.975 3.8,9.733 9.842,14.517c-3.359,2.82 -5.925,8.716 -6.067,14.337c-0.171,6.792 2.954,12.529 8.8,16.154l0.092,0.054c0.596,0.305 1.183,0.592 1.775,0.884c-3.325,2.25 -9.304,7.946 -7.959,19.25c1.013,8.533 7.025,13.616 14.471,16.766c-2.7,2.409 -7.241,7.346 -7.771,13.73c-0.42,5.037 1.734,9.891 6.413,14.441l0.083,0.071c1.004,0.821 2.129,1.571 3.334,2.275c-2.184,1.604 -5.955,5.258 -6.4,11.588c-0.371,5.179 3.895,10.12 10.825,13.616c-2.055,1.925 -5.4,5.854 -5.621,11.184c-0.117,2.891 1.416,5.479 3.908,7.716l-0.237,0.813c0.337,-1.446 -1.967,6.625 2.229,13.421c2.525,4.091 6.829,6.8 12.791,8.05l0.371,0.075l0.05,22.05l0,0.295l0.138,0.267c0.083,0.154 2,3.821 5.316,5.113c0.53,0.204 1.125,0.308 1.771,0.308c1.817,-0 3.938,-0.825 5.667,-2.208c1.929,-1.542 3.037,-3.538 3.037,-5.467c0,-0.579 0.109,-7.758 0.288,-19.579c4.621,-0.188 8.679,-3.317 10.658,-8.275c1.959,-4.909 1.279,-9.967 -1.691,-13.188c2.329,-1.575 3.9,-5.125 4.37,-6.312c1.442,-3.6 1.842,-7.096 1.071,-9.338c-0.621,-1.812 -1.779,-3.879 -3.287,-5.85c2.062,-1.587 5.421,-4.8 7.062,-9.979c1.371,-4.329 0.559,-9.5 -2.179,-13.829c-0.454,-0.721 -1.008,-1.483 -1.667,-2.254c7.225,-6.684 10.225,-15.254 7.013,-23.846c-0.583,-1.55 -1.508,-3.013 -2.8,-4.413c3.012,-0.85 6.721,-4.02 9.275,-8.179c2.362,-3.846 6.779,-13.762 -1.208,-25.087c4.108,-0.334 8.029,-2.759 10.8,-6.796c3.8,-5.525 4.275,-12.554 1.216,-17.904c-1.462,-2.559 -3.325,-4.963 -5.475,-7.171c3.95,-0.904 7.871,-3.6 10.959,-7.646c4.65,-6.096 6.129,-13.612 3.866,-19.621c-0.933,-2.483 -2.304,-4.821 -4.083,-7.008c9.358,-2.546 15.825,-7.3 19.242,-14.163c3.833,-7.7 3.341,-18.029 -1.305,-27.625c-7.216,-14.908 -27.687,-18.425 -44.175,-14.195c-5.508,1.412 -10.145,5.304 -11.82,10.675c-1.48,4.737 -0.488,9.591 1.791,12.612c6.263,8.313 15.421,5.521 16.9,4.971c3.446,-1.292 5.192,-2.35 7.779,-4.721c1.684,-1.55 3.917,-2.35 6.25,-2.275c2.25,0.071 4.359,0.979 5.796,2.496c1.296,1.367 1.921,3.433 1.713,5.675c-0.213,2.275 -1.25,4.342 -2.679,5.383c-7.255,5.113 -24.071,4.659 -34.78,3.738c-1.695,-0.321 -3.441,-0.617 -5.216,-0.888c0.271,-16.933 0.512,-32.179 0.712,-44.571c2.117,1.055 5.717,2.442 10.034,2.442" style="fill:#fff;"/><path d="M380.009,397.913c1.487,-0 2.695,-1.171 2.695,-2.621c0,-1.446 -1.208,-2.617 -2.695,-2.617c-1.488,0 -2.692,1.171 -2.692,2.617c-0,1.45 1.204,2.621 2.692,2.621" style="fill:#fff;"/><path d="M433.689,392.676c-1.488,-0 -2.696,1.171 -2.696,2.617c-0,1.445 1.208,2.62 2.696,2.62c1.487,0 2.691,-1.175 2.691,-2.62c0,-1.446 -1.204,-2.617 -2.691,-2.617" style="fill:#fff;"/><path d="M380.009,397.913c1.487,-0 2.695,-1.171 2.695,-2.621c0,-1.446 -1.208,-2.617 -2.695,-2.617c-1.488,0 -2.692,1.171 -2.692,2.617c-0,1.45 1.204,2.621 2.692,2.621" style="fill:#fff;"/><path d="M433.689,392.676c-1.488,-0 -2.696,1.171 -2.696,2.617c-0,1.445 1.208,2.62 2.696,2.62c1.487,0 2.691,-1.175 2.691,-2.62c0,-1.446 -1.204,-2.617 -2.691,-2.617" style="fill:#fff;"/></svg>
